#!OML:ASF H:\Dans Jumps\Project 1\Capture day 1\Session 1\subject.ASF
:FULLY-SPECIFIED
:DEGREES
187
root 0.343652 15.3079 -15.4808 14.3886 1.41927 -0.665359
lowerback 19.9762 -0.103408 0.235265
upperback 12.4479 -0.0756896 1.68662
thorax 2.30109 -0.0906539 1.67183
lowerneck -20.1663 0.0827591 -2.56675
upperneck 15.5813 0.928653 -0.337414
head 8.13523 0.24552 0.421463
rclavicle 0 -5.36719e-015
rhumerus -91.0786 -5.69066 -38.8936
rradius 15.5355
rwrist 50.0292
rhand -16.8602 -23.6154
rfingers 7.12502
rthumb 9.37023 -53.3872
lclavicle 0 -5.36719e-015
lhumerus -82.8478 2.46763 58.9163
lradius 8.80797
lwrist 0.182822
lhand -20.2698 -1.85576
lfingers 7.12502
lthumb 6.07933 28.037
rfemur -54.8629 -3.18935 19.6287
rtibia 69.5791
rfoot -29.4678 -13.9663
rtoes -1.71625
lfemur -54.5577 4.38703 -21.3689
ltibia 67.9919
lfoot -25.6838 17.135
ltoes -4.35314
188
root 0.340918 15.2486 -15.4874 14.7601 1.42486 -0.650042
lowerback 20.2742 -0.0874402 0.208274
upperback 12.2483 -0.0527655 1.69023
thorax 1.93104 -0.0789178 1.6877
lowerneck -20.3765 0.076052 -2.57658
upperneck 15.5988 0.925441 -0.316773
head 8.17693 0.244834 0.430133
rclavicle -2.78299e-015 -1.09332e-014
rhumerus -90.5033 -6.01434 -38.7038
rradius 15.3292
rwrist 50.8667
rhand -16.7879 -23.6053
rfingers 7.12502
rthumb 9.43996 -53.3738
lclavicle -2.78299e-015 -1.09332e-014
lhumerus -82.0642 2.75562 58.9472
lradius 8.5018
lwrist -0.397558
lhand -20.2541 -1.73821
lfingers 7.12502
lthumb 6.09453 28.1541
rfemur -55.7346 -3.16255 19.6506
rtibia 70.2935
rfoot -29.5745 -14.3262
rtoes -1.4147
lfemur -55.4096 4.2221 -21.3699
ltibia 68.6855
lfoot -25.7851 17.3064
ltoes -4.30438
189
root 0.338176 15.1886 -15.4923 15.1496 1.41457 -0.633946
lowerback 20.5513 -0.065274 0.169102
upperback 12.0331 -0.0243426 1.68994
thorax 1.55486 -0.0647678 1.70511
lowerneck -20.6019 0.0696186 -2.57868
upperneck 15.6337 0.920707 -0.29437
head 8.22717 0.243857 0.43805
rclavicle -7.95139e-016 -3.37934e-015
rhumerus -89.8502 -6.40032 -38.4862
rradius 15.1125
rwrist 51.8207
rhand -16.6185 -23.5027
rfingers 7.12502
rthumb 9.60349 -53.2638
lclavicle -7.95139e-016 -3.37934e-015
lhumerus -81.2389 3.05838 58.9789
lradius 8.22434
lwrist -0.939214
lhand -20.3183 -1.67645
lfingers 7.12502
lthumb 6.03249 28.2177
rfemur -56.6202 -3.12622 19.6678
rtibia 71.0089
rfoot -29.691 -14.6486
rtoes -1.0197
lfemur -56.2752 4.06367 -21.3723
ltibia 69.3788
lfoot -25.8727 17.4835
ltoes -4.21644
190
root 0.335688 15.1285 -15.4951 15.5466 1.38833 -0.614972
lowerback 20.8145 -0.0371496 0.116193
upperback 11.8089 0.00884294 1.68721
thorax 1.17635 -0.0486649 1.72662
lowerneck -20.8204 0.063177 -2.57643
upperneck 15.6516 0.915083 -0.276434
head 8.2705 0.242507 0.443576
rclavicle 9.34288e-015 7.35503e-015
rhumerus -89.1139 -6.85999 -38.2549
rradius 14.8908
rwrist 52.7628
rhand -16.3988 -23.3325
rfingers 7.12502
rthumb 9.81546 -53.0838
lclavicle 9.34288e-015 7.35503e-015
lhumerus -80.3307 3.40762 59.0204
lradius 7.9402
lwrist -1.36769
lhand -20.4558 -1.68556
lfingers 7.12502
lthumb 5.89976 28.2123
rfemur -57.5313 -3.08332 19.6771
rtibia 71.8324
rfoot -29.8955 -14.9464
rtoes -0.610754
lfemur -57.1704 3.91352 -21.3799
ltibia 70.1867
lfoot -26.0255 17.6862
ltoes -4.06504
191
root 0.333403 15.0687 -15.4953 15.9435 1.34915 -0.596618
lowerback 21.0612 -0.00246455 0.0532594
upperback 11.5843 0.0479719 1.6861
thorax 0.806009 -0.0299701 1.75415
lowerneck -21.0509 0.0578103 -2.55688
upperneck 15.656 0.911227 -0.284769
head 8.3115 0.240381 0.437639
rclavicle -7.15625e-015 -1.49089e-014
rhumerus -88.2982 -7.40568 -38.0129
rradius 14.673
rwrist 53.5908
rhand -16.1786 -23.1204
rfingers 7.12502
rthumb 10.0278 -52.8615
lclavicle -7.15625e-015 -1.49089e-014
lhumerus -79.3298 3.80941 59.0808
lradius 7.66681
lwrist -1.66709
lhand -20.6463 -1.75949
lfingers 7.12502
lthumb 5.71585 28.1434
rfemur -58.4263 -3.03353 19.6827
rtibia 72.6402
rfoot -30.0947 -15.2011
rtoes -0.24226
lfemur -58.0514 3.77133 -21.3873
ltibia 70.9811
lfoot -26.1516 17.8707
ltoes -3.83588
192
root 0.331489 15.0095 -15.4926 16.3271 1.29816 -0.581702
lowerback 21.3016 0.0380914 -0.0196353
upperback 11.3678 0.0921885 1.69142
thorax 0.448151 -0.00926619 1.79297
lowerneck -21.2749 0.0505365 -2.53991
upperneck 15.6196 0.908527 -0.311715
head 8.33763 0.237133 0.425812
rclavicle -6.16232e-015 -8.15017e-015
rhumerus -87.3996 -8.0363 -37.802
rradius 14.476
rwrist 54.2171
rhand -16.0092 -22.9075
rfingers 7.12502
rthumb 10.1912 -52.6407
lclavicle -6.16232e-015 -8.15017e-015
lhumerus -78.2154 4.27369 59.1691
lradius 7.40304
lwrist -1.84121
lhand -20.8378 -1.89514
lfingers 7.12502
lthumb 5.53097 28.0127
rfemur -59.2866 -2.9772 19.6869
rtibia 73.4248
rfoot -30.2728 -15.4136
rtoes 0.0124553
lfemur -58.8985 3.63645 -21.3894
ltibia 71.758
lfoot -26.2545 18.0336
ltoes -3.52963
193
root 0.329969 14.9514 -15.4867 16.6891 1.24 -0.572174
lowerback 21.5423 0.0841471 -0.0949028
upperback 11.1563 0.142479 1.70364
thorax 0.0956489 0.0143774 1.83904
lowerneck -21.4975 0.0399473 -2.52185
upperneck 15.5635 0.90446 -0.357499
head 8.35693 0.23148 0.407157
rclavicle -2.78299e-015 7.15625e-015
rhumerus -86.4388 -8.73759 -37.647
rradius 14.314
rwrist 54.6303
rhand -15.9314 -22.7223
rfingers 7.12502
rthumb 10.2664 -52.4517
lclavicle -2.78299e-015 7.15625e-015
lhumerus -76.9852 4.79175 59.2907
lradius 7.15297
lwrist -1.9529
lhand -21.0227 -2.06938
lfingers 7.12502
lthumb 5.35241 27.843
rfemur -60.1008 -2.91772 19.6925
rtibia 74.1815
rfoot -30.4278 -15.5907
rtoes 0.184368
lfemur -59.699 3.50522 -21.3818
ltibia 72.515
lfoot -26.3419 18.1732
ltoes -3.14179
194
root 0.328902 14.8949 -15.477 17.0133 1.18175 -0.571377
lowerback 21.7943 0.130667 -0.164467
upperback 10.955 0.193974 1.72272
thorax -0.250868 0.0388702 1.88873
lowerneck -21.6976 0.0258123 -2.51348
upperneck 15.4753 0.89883 -0.410619
head 8.36143 0.224119 0.387206
rclavicle 1.59028e-015 -2.04748e-014
rhumerus -85.4085 -9.5003 -37.5839
rradius 14.1926
rwrist 54.8561
rhand -15.9651 -22.6018
rfingers 7.12502
rthumb 10.2338 -52.3329
lclavicle 1.59028e-015 -2.04748e-014
lhumerus -75.6188 5.37525 59.4481
lradius 6.89766
lwrist -2.06121
lhand -21.1857 -2.2434
lfingers 7.12502
lthumb 5.195 27.6729
rfemur -60.8434 -2.85924 19.7034
rtibia 74.9061
rfoot -30.5547 -15.7465
rtoes 0.257436
lfemur -60.4285 3.37507 -21.3582
ltibia 73.2486
lfoot -26.4238 18.2938
ltoes -2.68997
